<svg width="284" height="300" viewBox="0 0 284 300" fill="none" xmlns="http://www.w3.org/2000/svg">
<path d="M0.448723 299.474H283.417L245.232 255.824H213.64L194.277 236.25V175.573L173.895 150.128H142.304L0.448242 0.392639L0.448723 299.474Z" fill="#F8F200"/>
<path d="M126.386 149.933L119.328 141.513L109.663 148.83L116.721 157.251L126.386 149.933Z" fill="black" stroke="black" stroke-width="2"/>
<path d="M261.429 282.741L249.292 268.261L239.627 275.579L251.764 290.059L261.429 282.741Z" fill="black" stroke="black" stroke-width="2"/>
<path d="M108.213 127.705L106.595 125.775L96.9298 133.093L98.5473 135.022L108.213 127.705Z" fill="black" stroke="black" stroke-width="2"/>
<path d="M172.282 159.18L170.665 157.251L167.825 159.4L169.443 161.33L172.282 159.18Z" fill="black" stroke="black" stroke-width="2"/>
<path d="M187.858 177.617L177.598 165.376L174.759 167.526L185.019 179.766L187.858 177.617Z" fill="black" stroke="black" stroke-width="2"/>
<path d="M230.885 232.372L220.625 220.131L217.786 222.281L228.046 234.521L230.885 232.372Z" fill="#F8F200"/>
<path d="M236.067 238.152L233.723 235.355L230.883 237.504L233.228 240.302L236.067 238.152Z" fill="#F8F200"/>
<path d="M92.906 108.659L91.2886 106.73L81.6232 114.047L83.2406 115.977L92.906 108.659Z" fill="black" stroke="black" stroke-width="2"/>
<path d="M38.2754 66.7713L58.9549 70.6739V59.5828L71.2176 72.5695L58.9549 70.6739V93.177L38.2754 66.7713Z" fill="black"/>
<path d="M58.9549 70.6739L38.2754 66.7713L58.9549 93.177V70.6739ZM58.9549 70.6739V59.5828L71.2176 72.5695L58.9549 70.6739Z" stroke="black" stroke-width="2"/>
</svg>
