<svg width="284" height="300" viewBox="0 0 284 300" fill="none" xmlns="http://www.w3.org/2000/svg">
<path d="M283.704 300.009H0.735046L38.9207 256.359H70.5125L89.8751 236.786V176.109L110.257 150.663H141.849L283.704 0.92804L283.704 300.009Z" fill="#F8F200"/>
<path d="M161.479 150.468L168.537 142.048L178.203 149.366L171.145 157.786L161.479 150.468Z" fill="black" stroke="black" stroke-width="2"/>
<path d="M26.4339 283.276L38.5713 268.797L48.2367 276.114L36.0993 290.594L26.4339 283.276Z" fill="black" stroke="black" stroke-width="2"/>
<path d="M179.651 128.24L181.269 126.311L190.934 133.628L189.316 135.558L179.651 128.24Z" fill="black" stroke="black" stroke-width="2"/>
<path d="M115.582 159.716L117.199 157.786L120.038 159.935L118.421 161.865L115.582 159.716Z" fill="black" stroke="black" stroke-width="2"/>
<path d="M100.009 178.152L110.27 165.912L113.108 168.061L102.848 180.302L100.009 178.152Z" fill="black" stroke="black" stroke-width="2"/>
<path d="M56.9799 232.907L67.2402 220.667L70.0792 222.816L59.8188 235.057L56.9799 232.907Z" fill="#F8F200"/>
<path d="M51.7941 238.687L54.1387 235.89L56.9779 238.04L54.6333 240.837L51.7941 238.687Z" fill="#F8F200"/>
<path d="M194.96 109.195L196.577 107.265L206.243 114.583L204.625 116.512L194.96 109.195Z" fill="black" stroke="black" stroke-width="2"/>
<path d="M249.589 67.3066L228.909 71.2093V60.1182L216.647 73.1049L228.909 71.2093V93.7123L249.589 67.3066Z" fill="black"/>
<path d="M228.909 71.2093L249.589 67.3066L228.909 93.7123V71.2093ZM228.909 71.2093V60.1182L216.647 73.1049L228.909 71.2093Z" stroke="black" stroke-width="2"/>
</svg>
